<?xml version="1.0" encoding="UTF-8" standalone="no"?>
<!DOCTYPE svg PUBLIC "-//W3C//DTD SVG 1.1//EN"
 "http://www.w3.org/Graphics/SVG/1.1/DTD/svg11.dtd">
<!-- Generated by graphviz version 2.36.0 (20140111.2315)
 -->
<!-- Title: G Pages: 1 -->
<svg width="862pt" height="402pt"
 viewBox="0.00 0.00 862.00 402.00" xmlns="http://www.w3.org/2000/svg" xmlns:xlink="http://www.w3.org/1999/xlink">
<g id="graph0" class="graph" transform="scale(1 1) rotate(0) translate(4 398)">
<title>G</title>
<polygon fill="white" stroke="none" points="-4,4 -4,-398 858,-398 858,4 -4,4"/>
<g id="clust1" class="cluster"><title>cluster_Global</title>
<path fill="none" stroke="gray" d="M620,-8C620,-8 834,-8 834,-8 840,-8 846,-14 846,-20 846,-20 846,-374 846,-374 846,-380 840,-386 834,-386 834,-386 620,-386 620,-386 614,-386 608,-380 608,-374 608,-374 608,-20 608,-20 608,-14 614,-8 620,-8"/>
<text text-anchor="middle" x="727" y="-373.2" font-family="Times,serif" font-size="11.00" fill="gray">Global</text>
</g>
<g id="clust2" class="cluster"><title>cluster_\com</title>
<path fill="none" stroke="gray" d="M628,-16C628,-16 826,-16 826,-16 832,-16 838,-22 838,-28 838,-28 838,-346 838,-346 838,-352 832,-358 826,-358 826,-358 628,-358 628,-358 622,-358 616,-352 616,-346 616,-346 616,-28 616,-28 616,-22 622,-16 628,-16"/>
<text text-anchor="middle" x="727" y="-345.2" font-family="Times,serif" font-size="11.00" fill="gray">com</text>
</g>
<g id="clust3" class="cluster"><title>cluster_\com\xcitestudios</title>
<path fill="none" stroke="gray" d="M636,-24C636,-24 818,-24 818,-24 824,-24 830,-30 830,-36 830,-36 830,-318 830,-318 830,-324 824,-330 818,-330 818,-330 636,-330 636,-330 630,-330 624,-324 624,-318 624,-318 624,-36 624,-36 624,-30 630,-24 636,-24"/>
<text text-anchor="middle" x="727" y="-317.2" font-family="Times,serif" font-size="11.00" fill="gray">xcitestudios</text>
</g>
<g id="clust4" class="cluster"><title>cluster_\com\xcitestudios\Parallelisation</title>
<path fill="none" stroke="gray" d="M644,-32C644,-32 810,-32 810,-32 816,-32 822,-38 822,-44 822,-44 822,-290 822,-290 822,-296 816,-302 810,-302 810,-302 644,-302 644,-302 638,-302 632,-296 632,-290 632,-290 632,-44 632,-44 632,-38 638,-32 644,-32"/>
<text text-anchor="middle" x="727" y="-289.2" font-family="Times,serif" font-size="11.00" fill="gray">Parallelisation</text>
</g>
<g id="clust5" class="cluster"><title>cluster_\com\xcitestudios\Parallelisation\Interfaces</title>
<path fill="none" stroke="gray" d="M652,-40C652,-40 802,-40 802,-40 808,-40 814,-46 814,-52 814,-52 814,-262 814,-262 814,-268 808,-274 802,-274 802,-274 652,-274 652,-274 646,-274 640,-268 640,-262 640,-262 640,-52 640,-52 640,-46 646,-40 652,-40"/>
<text text-anchor="middle" x="727" y="-261.2" font-family="Times,serif" font-size="11.00" fill="gray">Interfaces</text>
</g>
<!-- \\com\\xcitestudios\\Parallelisation\\Interfaces\\EventHandlerInterface -->
<g id="node1" class="node"><title>\\com\\xcitestudios\\Parallelisation\\Interfaces\\EventHandlerInterface</title>
<polygon fill="none" stroke="black" points="806,-246 648,-246 648,-210 806,-210 806,-246"/>
<text text-anchor="middle" x="727" y="-225.2" font-family="Courier,monospace" font-size="11.00">EventHandlerInterface</text>
</g>
<!-- \\com\\xcitestudios\\Parallelisation\\Interfaces\\EventInputInterface -->
<g id="node2" class="node"><title>\\com\\xcitestudios\\Parallelisation\\Interfaces\\EventInputInterface</title>
<polygon fill="none" stroke="black" points="799.5,-192 654.5,-192 654.5,-156 799.5,-156 799.5,-192"/>
<text text-anchor="middle" x="727" y="-171.2" font-family="Courier,monospace" font-size="11.00">EventInputInterface</text>
</g>
<!-- \\com\\xcitestudios\\Generic\\Data\\Manipulation\\Interfaces\\SerializationInterface -->
<g id="node5" class="node"><title>\\com\\xcitestudios\\Generic\\Data\\Manipulation\\Interfaces\\SerializationInterface</title>
<ellipse fill="none" stroke="black" cx="288" cy="-120" rx="287.849" ry="18"/>
<text text-anchor="middle" x="288" y="-116.3" font-family="Times,serif" font-size="14.00" fill="gray">\com\xcitestudios\Generic\Data\Manipulation\Interfaces\SerializationInterface</text>
</g>
<!-- \\com\\xcitestudios\\Parallelisation\\Interfaces\\EventInputInterface&#45;&gt;\\com\\xcitestudios\\Generic\\Data\\Manipulation\\Interfaces\\SerializationInterface -->
<g id="edge1" class="edge"><title>\\com\\xcitestudios\\Parallelisation\\Interfaces\\EventInputInterface&#45;&gt;\\com\\xcitestudios\\Generic\\Data\\Manipulation\\Interfaces\\SerializationInterface</title>
<path fill="none" stroke="black" d="M654.328,-165.143C593.381,-157.612 504.068,-146.576 429.008,-137.301"/>
<polygon fill="none" stroke="black" points="429.342,-133.815 418.988,-136.063 428.483,-140.763 429.342,-133.815"/>
</g>
<!-- \\com\\xcitestudios\\Parallelisation\\Interfaces\\EventInterface -->
<g id="node3" class="node"><title>\\com\\xcitestudios\\Parallelisation\\Interfaces\\EventInterface</title>
<polygon fill="none" stroke="black" points="782.5,-138 671.5,-138 671.5,-102 782.5,-102 782.5,-138"/>
<text text-anchor="middle" x="727" y="-117.2" font-family="Courier,monospace" font-size="11.00">EventInterface</text>
</g>
<!-- \\com\\xcitestudios\\Parallelisation\\Interfaces\\EventInterface&#45;&gt;\\com\\xcitestudios\\Generic\\Data\\Manipulation\\Interfaces\\SerializationInterface -->
<g id="edge2" class="edge"><title>\\com\\xcitestudios\\Parallelisation\\Interfaces\\EventInterface&#45;&gt;\\com\\xcitestudios\\Generic\\Data\\Manipulation\\Interfaces\\SerializationInterface</title>
<path fill="none" stroke="black" d="M671.096,-120C647.621,-120 618.251,-120 586.283,-120"/>
<polygon fill="none" stroke="black" points="586.282,-116.5 576.282,-120 586.282,-123.5 586.282,-116.5"/>
</g>
<!-- \\com\\xcitestudios\\Parallelisation\\Interfaces\\EventOutputInterface -->
<g id="node4" class="node"><title>\\com\\xcitestudios\\Parallelisation\\Interfaces\\EventOutputInterface</title>
<polygon fill="none" stroke="black" points="803,-84 651,-84 651,-48 803,-48 803,-84"/>
<text text-anchor="middle" x="727" y="-63.2" font-family="Courier,monospace" font-size="11.00">EventOutputInterface</text>
</g>
<!-- \\com\\xcitestudios\\Parallelisation\\Interfaces\\EventOutputInterface&#45;&gt;\\com\\xcitestudios\\Generic\\Data\\Manipulation\\Interfaces\\SerializationInterface -->
<g id="edge3" class="edge"><title>\\com\\xcitestudios\\Parallelisation\\Interfaces\\EventOutputInterface&#45;&gt;\\com\\xcitestudios\\Generic\\Data\\Manipulation\\Interfaces\\SerializationInterface</title>
<path fill="none" stroke="black" d="M650.877,-75.2829C590.162,-82.7854 503.004,-93.5556 429.438,-102.646"/>
<polygon fill="none" stroke="black" points="428.647,-99.2171 419.152,-103.917 429.505,-106.164 428.647,-99.2171"/>
</g>
</g>
</svg>
