<?xml version="1.0" encoding="UTF-8" standalone="no"?>
<!DOCTYPE svg PUBLIC "-//W3C//DTD SVG 1.1//EN"
 "http://www.w3.org/Graphics/SVG/1.1/DTD/svg11.dtd">
<!-- Generated by graphviz version 2.36.0 (20140111.2315)
 -->
<!-- Title: G Pages: 1 -->
<svg width="1750pt" height="1210pt"
 viewBox="0.00 0.00 1750.00 1210.00" xmlns="http://www.w3.org/2000/svg" xmlns:xlink="http://www.w3.org/1999/xlink">
<g id="graph0" class="graph" transform="scale(1 1) rotate(0) translate(4 1206)">
<title>G</title>
<polygon fill="white" stroke="none" points="-4,4 -4,-1206 1746,-1206 1746,4 -4,4"/>
<g id="clust1" class="cluster"><title>cluster_Global</title>
<path fill="none" stroke="gray" d="M159,-44C159,-44 1722,-44 1722,-44 1728,-44 1734,-50 1734,-56 1734,-56 1734,-1182 1734,-1182 1734,-1188 1728,-1194 1722,-1194 1722,-1194 159,-1194 159,-1194 153,-1194 147,-1188 147,-1182 147,-1182 147,-56 147,-56 147,-50 153,-44 159,-44"/>
<text text-anchor="middle" x="940.5" y="-1181.2" font-family="Times,serif" font-size="11.00" fill="gray">Global</text>
</g>
<g id="clust2" class="cluster"><title>cluster_\com</title>
<path fill="none" stroke="gray" d="M167,-52C167,-52 1714,-52 1714,-52 1720,-52 1726,-58 1726,-64 1726,-64 1726,-1154 1726,-1154 1726,-1160 1720,-1166 1714,-1166 1714,-1166 167,-1166 167,-1166 161,-1166 155,-1160 155,-1154 155,-1154 155,-64 155,-64 155,-58 161,-52 167,-52"/>
<text text-anchor="middle" x="940.5" y="-1153.2" font-family="Times,serif" font-size="11.00" fill="gray">com</text>
</g>
<g id="clust3" class="cluster"><title>cluster_\com\xcitestudios</title>
<path fill="none" stroke="gray" d="M175,-60C175,-60 1706,-60 1706,-60 1712,-60 1718,-66 1718,-72 1718,-72 1718,-1126 1718,-1126 1718,-1132 1712,-1138 1706,-1138 1706,-1138 175,-1138 175,-1138 169,-1138 163,-1132 163,-1126 163,-1126 163,-72 163,-72 163,-66 169,-60 175,-60"/>
<text text-anchor="middle" x="940.5" y="-1125.2" font-family="Times,serif" font-size="11.00" fill="gray">xcitestudios</text>
</g>
<g id="clust4" class="cluster"><title>cluster_\com\xcitestudios\Parallelisation</title>
<path fill="none" stroke="gray" d="M183,-68C183,-68 1698,-68 1698,-68 1704,-68 1710,-74 1710,-80 1710,-80 1710,-1098 1710,-1098 1710,-1104 1704,-1110 1698,-1110 1698,-1110 183,-1110 183,-1110 177,-1110 171,-1104 171,-1098 171,-1098 171,-80 171,-80 171,-74 177,-68 183,-68"/>
<text text-anchor="middle" x="940.5" y="-1097.2" font-family="Times,serif" font-size="11.00" fill="gray">Parallelisation</text>
</g>
<g id="clust5" class="cluster"><title>cluster_\com\xcitestudios\Parallelisation\Distributed</title>
<path fill="none" stroke="gray" d="M191,-318C191,-318 1690,-318 1690,-318 1696,-318 1702,-324 1702,-330 1702,-330 1702,-1070 1702,-1070 1702,-1076 1696,-1082 1690,-1082 1690,-1082 191,-1082 191,-1082 185,-1082 179,-1076 179,-1070 179,-1070 179,-330 179,-330 179,-324 185,-318 191,-318"/>
<text text-anchor="middle" x="940.5" y="-1069.2" font-family="Times,serif" font-size="11.00" fill="gray">Distributed</text>
</g>
<g id="clust6" class="cluster"><title>cluster_\com\xcitestudios\Parallelisation\Distributed\Interfaces</title>
<path fill="none" stroke="gray" d="M1120,-550C1120,-550 1352,-550 1352,-550 1358,-550 1364,-556 1364,-562 1364,-562 1364,-610 1364,-610 1364,-616 1358,-622 1352,-622 1352,-622 1120,-622 1120,-622 1114,-622 1108,-616 1108,-610 1108,-610 1108,-562 1108,-562 1108,-556 1114,-550 1120,-550"/>
<text text-anchor="middle" x="1236" y="-609.2" font-family="Times,serif" font-size="11.00" fill="gray">Interfaces</text>
</g>
<g id="clust7" class="cluster"><title>cluster_\com\xcitestudios\Parallelisation\Distributed\Queue</title>
<path fill="none" stroke="gray" d="M866,-326C866,-326 1624,-326 1624,-326 1630,-326 1636,-332 1636,-338 1636,-338 1636,-530 1636,-530 1636,-536 1630,-542 1624,-542 1624,-542 866,-542 866,-542 860,-542 854,-536 854,-530 854,-530 854,-338 854,-338 854,-332 860,-326 866,-326"/>
<text text-anchor="middle" x="1245" y="-529.2" font-family="Times,serif" font-size="11.00" fill="gray">Queue</text>
</g>
<g id="clust8" class="cluster"><title>cluster_\com\xcitestudios\Parallelisation\Distributed\Queue\AMQP</title>
<path fill="none" stroke="gray" d="M874,-334C874,-334 1616,-334 1616,-334 1622,-334 1628,-340 1628,-346 1628,-346 1628,-502 1628,-502 1628,-508 1622,-514 1616,-514 1616,-514 874,-514 874,-514 868,-514 862,-508 862,-502 862,-502 862,-346 862,-346 862,-340 868,-334 874,-334"/>
<text text-anchor="middle" x="1245" y="-501.2" font-family="Times,serif" font-size="11.00" fill="gray">AMQP</text>
</g>
<g id="clust9" class="cluster"><title>cluster_\com\xcitestudios\Parallelisation\Distributed\Queue\AMQP\Interfaces</title>
<path fill="none" stroke="gray" d="M882,-342C882,-342 1040,-342 1040,-342 1046,-342 1052,-348 1052,-354 1052,-354 1052,-456 1052,-456 1052,-462 1046,-468 1040,-468 1040,-468 882,-468 882,-468 876,-468 870,-462 870,-456 870,-456 870,-354 870,-354 870,-348 876,-342 882,-342"/>
<text text-anchor="middle" x="961" y="-455.2" font-family="Times,serif" font-size="11.00" fill="gray">Interfaces</text>
</g>
<g id="clust10" class="cluster"><title>cluster_\com\xcitestudios\Parallelisation\Distributed\Utilities</title>
<path fill="none" stroke="gray" d="M199,-630C199,-630 1682,-630 1682,-630 1688,-630 1694,-636 1694,-642 1694,-642 1694,-1042 1694,-1042 1694,-1048 1688,-1054 1682,-1054 1682,-1054 199,-1054 199,-1054 193,-1054 187,-1048 187,-1042 187,-1042 187,-642 187,-642 187,-636 193,-630 199,-630"/>
<text text-anchor="middle" x="940.5" y="-1041.2" font-family="Times,serif" font-size="11.00" fill="gray">Utilities</text>
</g>
<g id="clust11" class="cluster"><title>cluster_\com\xcitestudios\Parallelisation\Distributed\Utilities\Data</title>
<path fill="none" stroke="gray" d="M207,-638C207,-638 1674,-638 1674,-638 1680,-638 1686,-644 1686,-650 1686,-650 1686,-1014 1686,-1014 1686,-1020 1680,-1026 1674,-1026 1674,-1026 207,-1026 207,-1026 201,-1026 195,-1020 195,-1014 195,-1014 195,-650 195,-650 195,-644 201,-638 207,-638"/>
<text text-anchor="middle" x="940.5" y="-1013.2" font-family="Times,serif" font-size="11.00" fill="gray">Data</text>
</g>
<g id="clust12" class="cluster"><title>cluster_\com\xcitestudios\Parallelisation\Distributed\Utilities\Data\Conversion</title>
<path fill="none" stroke="gray" d="M215,-646C215,-646 1666,-646 1666,-646 1672,-646 1678,-652 1678,-658 1678,-658 1678,-986 1678,-986 1678,-992 1672,-998 1666,-998 1666,-998 215,-998 215,-998 209,-998 203,-992 203,-986 203,-986 203,-658 203,-658 203,-652 209,-646 215,-646"/>
<text text-anchor="middle" x="940.5" y="-985.2" font-family="Times,serif" font-size="11.00" fill="gray">Conversion</text>
</g>
<g id="clust13" class="cluster"><title>cluster_\com\xcitestudios\Parallelisation\Distributed\Utilities\Data\Conversion\CSVToJson</title>
<path fill="none" stroke="gray" d="M1146,-654C1146,-654 1658,-654 1658,-654 1664,-654 1670,-660 1670,-666 1670,-666 1670,-958 1670,-958 1670,-964 1664,-970 1658,-970 1658,-970 1146,-970 1146,-970 1140,-970 1134,-964 1134,-958 1134,-958 1134,-666 1134,-666 1134,-660 1140,-654 1146,-654"/>
<text text-anchor="middle" x="1402" y="-957.2" font-family="Times,serif" font-size="11.00" fill="gray">CSVToJson</text>
</g>
<g id="clust14" class="cluster"><title>cluster_\com\xcitestudios\Parallelisation\Distributed\Utilities\Data\Conversion\CSVToJson\AMQP</title>
<path fill="none" stroke="gray" d="M1154,-816C1154,-816 1650,-816 1650,-816 1656,-816 1662,-822 1662,-828 1662,-828 1662,-930 1662,-930 1662,-936 1656,-942 1650,-942 1650,-942 1154,-942 1154,-942 1148,-942 1142,-936 1142,-930 1142,-930 1142,-828 1142,-828 1142,-822 1148,-816 1154,-816"/>
<text text-anchor="middle" x="1402" y="-929.2" font-family="Times,serif" font-size="11.00" fill="gray">AMQP</text>
</g>
<g id="clust15" class="cluster"><title>cluster_\com\xcitestudios\Parallelisation\Distributed\Utilities\Data\Conversion\Interfaces</title>
<path fill="none" stroke="gray" d="M223,-870C223,-870 353,-870 353,-870 359,-870 365,-876 365,-882 365,-882 365,-930 365,-930 365,-936 359,-942 353,-942 353,-942 223,-942 223,-942 217,-942 211,-936 211,-930 211,-930 211,-882 211,-882 211,-876 217,-870 223,-870"/>
<text text-anchor="middle" x="288" y="-929.2" font-family="Times,serif" font-size="11.00" fill="gray">Interfaces</text>
</g>
<g id="clust16" class="cluster"><title>cluster_\com\xcitestudios\Parallelisation\Interfaces</title>
<path fill="none" stroke="gray" d="M652,-76C652,-76 802,-76 802,-76 808,-76 814,-82 814,-88 814,-88 814,-298 814,-298 814,-304 808,-310 802,-310 802,-310 652,-310 652,-310 646,-310 640,-304 640,-298 640,-298 640,-88 640,-88 640,-82 646,-76 652,-76"/>
<text text-anchor="middle" x="727" y="-297.2" font-family="Times,serif" font-size="11.00" fill="gray">Interfaces</text>
</g>
<!-- \\com\\xcitestudios\\Parallelisation\\Distributed\\Interfaces\\EventTransmissionWrapperInterface -->
<g id="node1" class="node"><title>\\com\\xcitestudios\\Parallelisation\\Distributed\\Interfaces\\EventTransmissionWrapperInterface</title>
<polygon fill="none" stroke="black" points="1355.5,-594 1116.5,-594 1116.5,-558 1355.5,-558 1355.5,-594"/>
<text text-anchor="middle" x="1236" y="-573.2" font-family="Courier,monospace" font-size="11.00">EventTransmissionWrapperInterface</text>
</g>
<!-- \\com\\xcitestudios\\Parallelisation\\Distributed\\Queue\\AMQP\\Interfaces\\RPCDispatcherInterface -->
<g id="node2" class="node"><title>\\com\\xcitestudios\\Parallelisation\\Distributed\\Queue\\AMQP\\Interfaces\\RPCDispatcherInterface</title>
<polygon fill="none" stroke="black" points="1043.5,-440 878.5,-440 878.5,-404 1043.5,-404 1043.5,-440"/>
<text text-anchor="middle" x="961" y="-419.2" font-family="Courier,monospace" font-size="11.00">RPCDispatcherInterface</text>
</g>
<!-- \\com\\xcitestudios\\Parallelisation\\Interfaces\\EventHandlerInterface -->
<g id="node18" class="node"><title>\\com\\xcitestudios\\Parallelisation\\Interfaces\\EventHandlerInterface</title>
<polygon fill="none" stroke="black" points="806,-282 648,-282 648,-246 806,-246 806,-282"/>
<text text-anchor="middle" x="727" y="-261.2" font-family="Courier,monospace" font-size="11.00">EventHandlerInterface</text>
</g>
<!-- \\com\\xcitestudios\\Parallelisation\\Distributed\\Queue\\AMQP\\Interfaces\\RPCDispatcherInterface&#45;&gt;\\com\\xcitestudios\\Parallelisation\\Interfaces\\EventHandlerInterface -->
<g id="edge19" class="edge"><title>\\com\\xcitestudios\\Parallelisation\\Distributed\\Queue\\AMQP\\Interfaces\\RPCDispatcherInterface&#45;&gt;\\com\\xcitestudios\\Parallelisation\\Interfaces\\EventHandlerInterface</title>
<path fill="none" stroke="black" d="M878.278,-406.173C869.809,-403.081 861.55,-399.394 854,-395 808.328,-368.415 768.49,-320.552 746.398,-290.627"/>
<polygon fill="none" stroke="black" points="749.087,-288.372 740.386,-282.327 743.418,-292.479 749.087,-288.372"/>
</g>
<!-- \\com\\xcitestudios\\Parallelisation\\Distributed\\Queue\\AMQP\\Interfaces\\RPCWorkerInterface -->
<g id="node3" class="node"><title>\\com\\xcitestudios\\Parallelisation\\Distributed\\Queue\\AMQP\\Interfaces\\RPCWorkerInterface</title>
<polygon fill="none" stroke="black" points="1030,-386 892,-386 892,-350 1030,-350 1030,-386"/>
<text text-anchor="middle" x="961" y="-365.2" font-family="Courier,monospace" font-size="11.00">RPCWorkerInterface</text>
</g>
<!-- \\com\\xcitestudios\\Parallelisation\\Distributed\\Queue\\AMQP\\BlockingRPCDispatcher -->
<g id="node4" class="node"><title>\\com\\xcitestudios\\Parallelisation\\Distributed\\Queue\\AMQP\\BlockingRPCDispatcher</title>
<polygon fill="none" stroke="black" points="1620,-432 1462,-432 1462,-396 1620,-396 1620,-432"/>
<text text-anchor="middle" x="1541" y="-411.2" font-family="Courier,monospace" font-size="11.00">BlockingRPCDispatcher</text>
</g>
<!-- \\com\\xcitestudios\\Parallelisation\\Distributed\\Queue\\AMQP\\RPCDispatcher -->
<g id="node5" class="node"><title>\\com\\xcitestudios\\Parallelisation\\Distributed\\Queue\\AMQP\\RPCDispatcher</title>
<polygon fill="none" stroke="black" points="1288,-440 1184,-440 1184,-404 1288,-404 1288,-440"/>
<text text-anchor="middle" x="1236" y="-419.2" font-family="Courier,monospace" font-size="11.00">RPCDispatcher</text>
</g>
<!-- \\com\\xcitestudios\\Parallelisation\\Distributed\\Queue\\AMQP\\BlockingRPCDispatcher&#45;&gt;\\com\\xcitestudios\\Parallelisation\\Distributed\\Queue\\AMQP\\RPCDispatcher -->
<g id="edge1" class="edge"><title>\\com\\xcitestudios\\Parallelisation\\Distributed\\Queue\\AMQP\\BlockingRPCDispatcher&#45;&gt;\\com\\xcitestudios\\Parallelisation\\Distributed\\Queue\\AMQP\\RPCDispatcher</title>
<path fill="none" stroke="black" d="M1461.97,-416.06C1411,-417.406 1345.4,-419.138 1298.2,-420.384"/>
<polygon fill="none" stroke="black" points="1298.03,-416.887 1288.12,-420.65 1298.21,-423.885 1298.03,-416.887"/>
</g>
<!-- \\com\\xcitestudios\\Parallelisation\\Distributed\\Queue\\AMQP\\RPCDispatcher&#45;&gt;\\com\\xcitestudios\\Parallelisation\\Distributed\\Queue\\AMQP\\Interfaces\\RPCDispatcherInterface -->
<g id="edge2" class="edge"><title>\\com\\xcitestudios\\Parallelisation\\Distributed\\Queue\\AMQP\\RPCDispatcher&#45;&gt;\\com\\xcitestudios\\Parallelisation\\Distributed\\Queue\\AMQP\\Interfaces\\RPCDispatcherInterface</title>
<path fill="none" stroke="black" stroke-dasharray="1,5" d="M1183.97,-422C1147.39,-422 1097.1,-422 1053.64,-422"/>
<polygon fill="none" stroke="black" points="1053.62,-418.5 1043.62,-422 1053.62,-425.5 1053.62,-418.5"/>
</g>
<!-- \\com\\xcitestudios\\Parallelisation\\Distributed\\Queue\\AMQP\\RPCEventWrapper -->
<g id="node6" class="node"><title>\\com\\xcitestudios\\Parallelisation\\Distributed\\Queue\\AMQP\\RPCEventWrapper</title>
<polygon fill="none" stroke="black" points="1600,-486 1482,-486 1482,-450 1600,-450 1600,-486"/>
<text text-anchor="middle" x="1541" y="-465.2" font-family="Courier,monospace" font-size="11.00">RPCEventWrapper</text>
</g>
<!-- \\com\\xcitestudios\\Parallelisation\\Distributed\\Queue\\AMQP\\RPCEventWrapper&#45;&gt;\\com\\xcitestudios\\Parallelisation\\Distributed\\Interfaces\\EventTransmissionWrapperInterface -->
<g id="edge3" class="edge"><title>\\com\\xcitestudios\\Parallelisation\\Distributed\\Queue\\AMQP\\RPCEventWrapper&#45;&gt;\\com\\xcitestudios\\Parallelisation\\Distributed\\Interfaces\\EventTransmissionWrapperInterface</title>
<path fill="none" stroke="black" stroke-dasharray="1,5" d="M1489.28,-486.077C1436.33,-504.951 1353.32,-534.541 1297.1,-554.577"/>
<polygon fill="none" stroke="black" points="1295.87,-551.3 1287.63,-557.954 1298.22,-557.894 1295.87,-551.3"/>
</g>
<!-- \\com\\xcitestudios\\Parallelisation\\Distributed\\Queue\\AMQP\\RPCWorker -->
<g id="node7" class="node"><title>\\com\\xcitestudios\\Parallelisation\\Distributed\\Queue\\AMQP\\RPCWorker</title>
<polygon fill="none" stroke="black" points="1274.5,-386 1197.5,-386 1197.5,-350 1274.5,-350 1274.5,-386"/>
<text text-anchor="middle" x="1236" y="-365.2" font-family="Courier,monospace" font-size="11.00">RPCWorker</text>
</g>
<!-- \\com\\xcitestudios\\Parallelisation\\Distributed\\Queue\\AMQP\\RPCWorker&#45;&gt;\\com\\xcitestudios\\Parallelisation\\Distributed\\Queue\\AMQP\\Interfaces\\RPCWorkerInterface -->
<g id="edge4" class="edge"><title>\\com\\xcitestudios\\Parallelisation\\Distributed\\Queue\\AMQP\\RPCWorker&#45;&gt;\\com\\xcitestudios\\Parallelisation\\Distributed\\Queue\\AMQP\\Interfaces\\RPCWorkerInterface</title>
<path fill="none" stroke="black" stroke-dasharray="1,5" d="M1197.33,-368C1157.01,-368 1091.9,-368 1040.38,-368"/>
<polygon fill="none" stroke="black" points="1040.27,-364.5 1030.27,-368 1040.27,-371.5 1040.27,-364.5"/>
</g>
<!-- \\com\\xcitestudios\\Parallelisation\\Distributed\\Queue\\AMQP\\RPCWorkerAckTime -->
<g id="node8" class="node"><title>\\com\\xcitestudios\\Parallelisation\\Distributed\\Queue\\AMQP\\RPCWorkerAckTime</title>
<polygon fill="none" stroke="black" points="1603.5,-378 1478.5,-378 1478.5,-342 1603.5,-342 1603.5,-378"/>
<text text-anchor="start" x="1507" y="-363.2" font-family="Courier,monospace" font-size="11.00">«abstract»</text>
<text text-anchor="start" x="1486.5" y="-351.2" font-family="Courier,monospace" font-size="11.00">RPCWorkerAckTime</text>
</g>
<!-- \\com\\xcitestudios\\Parallelisation\\Distributed\\Utilities\\Data\\Conversion\\CSVToJson\\AMQP\\BlockingCSVToJsonFileDispatcher -->
<g id="node9" class="node"><title>\\com\\xcitestudios\\Parallelisation\\Distributed\\Utilities\\Data\\Conversion\\CSVToJson\\AMQP\\BlockingCSVToJsonFileDispatcher</title>
<polygon fill="none" stroke="black" points="1654,-914 1428,-914 1428,-878 1654,-878 1654,-914"/>
<text text-anchor="middle" x="1541" y="-893.2" font-family="Courier,monospace" font-size="11.00">BlockingCSVToJsonFileDispatcher</text>
</g>
<!-- \\com\\xcitestudios\\Parallelisation\\Distributed\\Utilities\\Data\\Conversion\\CSVToJson\\AMQP\\CSVToJsonFileDispatcher -->
<g id="node10" class="node"><title>\\com\\xcitestudios\\Parallelisation\\Distributed\\Utilities\\Data\\Conversion\\CSVToJson\\AMQP\\CSVToJsonFileDispatcher</title>
<polygon fill="none" stroke="black" points="1322,-914 1150,-914 1150,-878 1322,-878 1322,-914"/>
<text text-anchor="middle" x="1236" y="-893.2" font-family="Courier,monospace" font-size="11.00">CSVToJsonFileDispatcher</text>
</g>
<!-- \\com\\xcitestudios\\Parallelisation\\Distributed\\Utilities\\Data\\Conversion\\CSVToJson\\AMQP\\BlockingCSVToJsonFileDispatcher&#45;&gt;\\com\\xcitestudios\\Parallelisation\\Distributed\\Utilities\\Data\\Conversion\\CSVToJson\\AMQP\\CSVToJsonFileDispatcher -->
<g id="edge5" class="edge"><title>\\com\\xcitestudios\\Parallelisation\\Distributed\\Utilities\\Data\\Conversion\\CSVToJson\\AMQP\\BlockingCSVToJsonFileDispatcher&#45;&gt;\\com\\xcitestudios\\Parallelisation\\Distributed\\Utilities\\Data\\Conversion\\CSVToJson\\AMQP\\CSVToJsonFileDispatcher</title>
<path fill="none" stroke="black" d="M1427.6,-896C1396.28,-896 1362.57,-896 1332.33,-896"/>
<polygon fill="none" stroke="black" points="1332.22,-892.5 1322.22,-896 1332.22,-899.5 1332.22,-892.5"/>
</g>
<!-- \\com\\xcitestudios\\Parallelisation\\Distributed\\Utilities\\Data\\Conversion\\CSVToJsonFile -->
<g id="node17" class="node"><title>\\com\\xcitestudios\\Parallelisation\\Distributed\\Utilities\\Data\\Conversion\\CSVToJsonFile</title>
<polygon fill="none" stroke="black" points="1013,-914 909,-914 909,-878 1013,-878 1013,-914"/>
<text text-anchor="middle" x="961" y="-893.2" font-family="Courier,monospace" font-size="11.00">CSVToJsonFile</text>
</g>
<!-- \\com\\xcitestudios\\Parallelisation\\Distributed\\Utilities\\Data\\Conversion\\CSVToJson\\AMQP\\CSVToJsonFileDispatcher&#45;&gt;\\com\\xcitestudios\\Parallelisation\\Distributed\\Utilities\\Data\\Conversion\\CSVToJsonFile -->
<g id="edge6" class="edge"><title>\\com\\xcitestudios\\Parallelisation\\Distributed\\Utilities\\Data\\Conversion\\CSVToJson\\AMQP\\CSVToJsonFileDispatcher&#45;&gt;\\com\\xcitestudios\\Parallelisation\\Distributed\\Utilities\\Data\\Conversion\\CSVToJsonFile</title>
<path fill="none" stroke="black" d="M1149.74,-896C1108.85,-896 1060.77,-896 1023.5,-896"/>
<polygon fill="none" stroke="black" points="1023.29,-892.5 1013.29,-896 1023.29,-899.5 1023.29,-892.5"/>
</g>
<!-- \\com\\xcitestudios\\Parallelisation\\Distributed\\Utilities\\Data\\Conversion\\CSVToJson\\AMQP\\CSVToJsonWorker -->
<g id="node11" class="node"><title>\\com\\xcitestudios\\Parallelisation\\Distributed\\Utilities\\Data\\Conversion\\CSVToJson\\AMQP\\CSVToJsonWorker</title>
<polygon fill="none" stroke="black" points="1600,-860 1482,-860 1482,-824 1600,-824 1600,-860"/>
<text text-anchor="middle" x="1541" y="-839.2" font-family="Courier,monospace" font-size="11.00">CSVToJsonWorker</text>
</g>
<!-- \\com\\xcitestudios\\Parallelisation\\Distributed\\Utilities\\Data\\Conversion\\CSVToJson\\AMQP\\CSVToJsonWorker&#45;&gt;\\com\\xcitestudios\\Parallelisation\\Interfaces\\EventHandlerInterface -->
<g id="edge7" class="edge"><title>\\com\\xcitestudios\\Parallelisation\\Distributed\\Utilities\\Data\\Conversion\\CSVToJson\\AMQP\\CSVToJsonWorker&#45;&gt;\\com\\xcitestudios\\Parallelisation\\Interfaces\\EventHandlerInterface</title>
<path fill="none" stroke="black" stroke-dasharray="1,5" d="M1481.89,-843.663C1462.21,-841.166 1441.76,-834.671 1428,-820 1277.75,-659.804 1522.52,-482.015 1364,-330 1322.94,-290.626 910.432,-292.181 854,-285 841.762,-283.443 828.893,-281.57 816.245,-279.594"/>
<polygon fill="none" stroke="black" points="816.591,-276.105 806.165,-277.99 815.491,-283.018 816.591,-276.105"/>
</g>
<!-- \\com\\xcitestudios\\Parallelisation\\Distributed\\Utilities\\Data\\Conversion\\CSVToJson\\Event -->
<g id="node12" class="node"><title>\\com\\xcitestudios\\Parallelisation\\Distributed\\Utilities\\Data\\Conversion\\CSVToJson\\Event</title>
<polygon fill="none" stroke="black" points="1568,-698 1514,-698 1514,-662 1568,-662 1568,-698"/>
<text text-anchor="middle" x="1541" y="-677.2" font-family="Courier,monospace" font-size="11.00">Event</text>
</g>
<!-- \\com\\xcitestudios\\Parallelisation\\Event -->
<g id="node22" class="node"><title>\\com\\xcitestudios\\Parallelisation\\Event</title>
<polygon fill="none" stroke="black" points="1278,-120 1194,-120 1194,-84 1278,-84 1278,-120"/>
<text text-anchor="start" x="1202" y="-105.2" font-family="Courier,monospace" font-size="11.00">«abstract»</text>
<text text-anchor="start" x="1219" y="-93.2" font-family="Courier,monospace" font-size="11.00">Event</text>
</g>
<!-- \\com\\xcitestudios\\Parallelisation\\Distributed\\Utilities\\Data\\Conversion\\CSVToJson\\Event&#45;&gt;\\com\\xcitestudios\\Parallelisation\\Event -->
<g id="edge8" class="edge"><title>\\com\\xcitestudios\\Parallelisation\\Distributed\\Utilities\\Data\\Conversion\\CSVToJson\\Event&#45;&gt;\\com\\xcitestudios\\Parallelisation\\Event</title>
<path fill="none" stroke="black" d="M1523.18,-661.68C1498.09,-633.237 1451.31,-575.698 1428,-518 1362.36,-355.546 1484.99,-255.736 1364,-129 1344.76,-108.848 1314.5,-101.861 1288.34,-100.025"/>
<polygon fill="none" stroke="black" points="1288.33,-96.5203 1278.17,-99.5467 1288,-103.513 1288.33,-96.5203"/>
</g>
<!-- \\com\\xcitestudios\\Parallelisation\\Distributed\\Utilities\\Data\\Conversion\\CSVToJson\\EventInput -->
<g id="node13" class="node"><title>\\com\\xcitestudios\\Parallelisation\\Distributed\\Utilities\\Data\\Conversion\\CSVToJson\\EventInput</title>
<polygon fill="none" stroke="black" points="1583,-752 1499,-752 1499,-716 1583,-716 1583,-752"/>
<text text-anchor="middle" x="1541" y="-731.2" font-family="Courier,monospace" font-size="11.00">EventInput</text>
</g>
<!-- \\com\\xcitestudios\\Parallelisation\\EventInput -->
<g id="node23" class="node"><title>\\com\\xcitestudios\\Parallelisation\\EventInput</title>
<polygon fill="none" stroke="black" points="1278,-174 1194,-174 1194,-138 1278,-138 1278,-174"/>
<text text-anchor="start" x="1202" y="-159.2" font-family="Courier,monospace" font-size="11.00">«abstract»</text>
<text text-anchor="start" x="1202" y="-147.2" font-family="Courier,monospace" font-size="11.00">EventInput</text>
</g>
<!-- \\com\\xcitestudios\\Parallelisation\\Distributed\\Utilities\\Data\\Conversion\\CSVToJson\\EventInput&#45;&gt;\\com\\xcitestudios\\Parallelisation\\EventInput -->
<g id="edge9" class="edge"><title>\\com\\xcitestudios\\Parallelisation\\Distributed\\Utilities\\Data\\Conversion\\CSVToJson\\EventInput&#45;&gt;\\com\\xcitestudios\\Parallelisation\\EventInput</title>
<path fill="none" stroke="black" d="M1498.99,-735.006C1474.79,-733.274 1445.57,-726.711 1428,-707 1271.91,-531.837 1522.45,-356.033 1364,-183 1345.12,-162.38 1314.72,-155.403 1288.4,-153.689"/>
<polygon fill="none" stroke="black" points="1288.3,-150.182 1278.17,-153.265 1288.01,-157.176 1288.3,-150.182"/>
</g>
<!-- \\com\\xcitestudios\\Parallelisation\\Distributed\\Utilities\\Data\\Conversion\\CSVToJson\\EventOutput -->
<g id="node14" class="node"><title>\\com\\xcitestudios\\Parallelisation\\Distributed\\Utilities\\Data\\Conversion\\CSVToJson\\EventOutput</title>
<polygon fill="none" stroke="black" points="1586.5,-806 1495.5,-806 1495.5,-770 1586.5,-770 1586.5,-806"/>
<text text-anchor="middle" x="1541" y="-785.2" font-family="Courier,monospace" font-size="11.00">EventOutput</text>
</g>
<!-- \\com\\xcitestudios\\Parallelisation\\EventOutput -->
<g id="node24" class="node"><title>\\com\\xcitestudios\\Parallelisation\\EventOutput</title>
<polygon fill="none" stroke="black" points="1281.5,-228 1190.5,-228 1190.5,-192 1281.5,-192 1281.5,-228"/>
<text text-anchor="start" x="1202" y="-213.2" font-family="Courier,monospace" font-size="11.00">«abstract»</text>
<text text-anchor="start" x="1198.5" y="-201.2" font-family="Courier,monospace" font-size="11.00">EventOutput</text>
</g>
<!-- \\com\\xcitestudios\\Parallelisation\\Distributed\\Utilities\\Data\\Conversion\\CSVToJson\\EventOutput&#45;&gt;\\com\\xcitestudios\\Parallelisation\\EventOutput -->
<g id="edge10" class="edge"><title>\\com\\xcitestudios\\Parallelisation\\Distributed\\Utilities\\Data\\Conversion\\CSVToJson\\EventOutput&#45;&gt;\\com\\xcitestudios\\Parallelisation\\EventOutput</title>
<path fill="none" stroke="black" d="M1495.47,-788.635C1472.06,-786.492 1444.81,-779.639 1428,-761 1285.02,-602.499 1481.96,-462.904 1364,-285 1346.8,-259.055 1317.29,-240.839 1291.05,-228.861"/>
<polygon fill="none" stroke="black" points="1292.12,-225.511 1281.56,-224.727 1289.33,-231.929 1292.12,-225.511"/>
</g>
<!-- \\com\\xcitestudios\\Parallelisation\\Distributed\\Utilities\\Data\\Conversion\\Interfaces\\CSVToJsonInterface -->
<g id="node15" class="node"><title>\\com\\xcitestudios\\Parallelisation\\Distributed\\Utilities\\Data\\Conversion\\Interfaces\\CSVToJsonInterface</title>
<polygon fill="none" stroke="black" points="357,-914 219,-914 219,-878 357,-878 357,-914"/>
<text text-anchor="middle" x="288" y="-893.2" font-family="Courier,monospace" font-size="11.00">CSVToJsonInterface</text>
</g>
<!-- \\com\\xcitestudios\\Parallelisation\\Distributed\\Utilities\\Data\\Conversion\\CSVToJsonAbstract -->
<g id="node16" class="node"><title>\\com\\xcitestudios\\Parallelisation\\Distributed\\Utilities\\Data\\Conversion\\CSVToJsonAbstract</title>
<polygon fill="none" stroke="black" points="792.5,-914 661.5,-914 661.5,-878 792.5,-878 792.5,-914"/>
<text text-anchor="start" x="693" y="-899.2" font-family="Courier,monospace" font-size="11.00">«abstract»</text>
<text text-anchor="start" x="669.5" y="-887.2" font-family="Courier,monospace" font-size="11.00">CSVToJsonAbstract</text>
</g>
<!-- \\com\\xcitestudios\\Parallelisation\\Distributed\\Utilities\\Data\\Conversion\\CSVToJsonAbstract&#45;&gt;\\com\\xcitestudios\\Parallelisation\\Distributed\\Utilities\\Data\\Conversion\\Interfaces\\CSVToJsonInterface -->
<g id="edge11" class="edge"><title>\\com\\xcitestudios\\Parallelisation\\Distributed\\Utilities\\Data\\Conversion\\CSVToJsonAbstract&#45;&gt;\\com\\xcitestudios\\Parallelisation\\Distributed\\Utilities\\Data\\Conversion\\Interfaces\\CSVToJsonInterface</title>
<path fill="none" stroke="black" stroke-dasharray="1,5" d="M661.049,-896C582.761,-896 451.296,-896 367.429,-896"/>
<polygon fill="none" stroke="black" points="367.19,-892.5 357.19,-896 367.19,-899.5 367.19,-892.5"/>
</g>
<!-- \\com\\xcitestudios\\Parallelisation\\Distributed\\Utilities\\Data\\Conversion\\CSVToJsonFile&#45;&gt;\\com\\xcitestudios\\Parallelisation\\Distributed\\Utilities\\Data\\Conversion\\CSVToJsonAbstract -->
<g id="edge12" class="edge"><title>\\com\\xcitestudios\\Parallelisation\\Distributed\\Utilities\\Data\\Conversion\\CSVToJsonFile&#45;&gt;\\com\\xcitestudios\\Parallelisation\\Distributed\\Utilities\\Data\\Conversion\\CSVToJsonAbstract</title>
<path fill="none" stroke="black" d="M908.799,-896C877.708,-896 837.472,-896 802.853,-896"/>
<polygon fill="none" stroke="black" points="802.779,-892.5 792.779,-896 802.779,-899.5 802.779,-892.5"/>
</g>
<!-- \\com\\xcitestudios\\Parallelisation\\Interfaces\\EventInputInterface -->
<g id="node19" class="node"><title>\\com\\xcitestudios\\Parallelisation\\Interfaces\\EventInputInterface</title>
<polygon fill="none" stroke="black" points="799.5,-174 654.5,-174 654.5,-138 799.5,-138 799.5,-174"/>
<text text-anchor="middle" x="727" y="-153.2" font-family="Courier,monospace" font-size="11.00">EventInputInterface</text>
</g>
<!-- \\com\\xcitestudios\\Generic\\Data\\Manipulation\\Interfaces\\SerializationInterface -->
<g id="node26" class="node"><title>\\com\\xcitestudios\\Generic\\Data\\Manipulation\\Interfaces\\SerializationInterface</title>
<ellipse fill="none" stroke="black" cx="288" cy="-18" rx="287.849" ry="18"/>
<text text-anchor="middle" x="288" y="-14.3" font-family="Times,serif" font-size="14.00" fill="gray">\com\xcitestudios\Generic\Data\Manipulation\Interfaces\SerializationInterface</text>
</g>
<!-- \\com\\xcitestudios\\Parallelisation\\Interfaces\\EventInputInterface&#45;&gt;\\com\\xcitestudios\\Generic\\Data\\Manipulation\\Interfaces\\SerializationInterface -->
<g id="edge20" class="edge"><title>\\com\\xcitestudios\\Parallelisation\\Interfaces\\EventInputInterface&#45;&gt;\\com\\xcitestudios\\Generic\\Data\\Manipulation\\Interfaces\\SerializationInterface</title>
<path fill="none" stroke="black" d="M668.17,-137.862C658.753,-134.904 649.105,-131.869 640,-129 540.445,-97.6307 425.059,-61.1097 354.56,-38.7774"/>
<polygon fill="none" stroke="black" points="355.506,-35.4059 344.916,-35.7224 353.392,-42.079 355.506,-35.4059"/>
</g>
<!-- \\com\\xcitestudios\\Parallelisation\\Interfaces\\EventInterface -->
<g id="node20" class="node"><title>\\com\\xcitestudios\\Parallelisation\\Interfaces\\EventInterface</title>
<polygon fill="none" stroke="black" points="782.5,-120 671.5,-120 671.5,-84 782.5,-84 782.5,-120"/>
<text text-anchor="middle" x="727" y="-99.2" font-family="Courier,monospace" font-size="11.00">EventInterface</text>
</g>
<!-- \\com\\xcitestudios\\Parallelisation\\Interfaces\\EventInterface&#45;&gt;\\com\\xcitestudios\\Generic\\Data\\Manipulation\\Interfaces\\SerializationInterface -->
<g id="edge21" class="edge"><title>\\com\\xcitestudios\\Parallelisation\\Interfaces\\EventInterface&#45;&gt;\\com\\xcitestudios\\Generic\\Data\\Manipulation\\Interfaces\\SerializationInterface</title>
<path fill="none" stroke="black" d="M671.096,-91.4464C600.242,-77.8268 475.685,-53.8845 388.086,-37.0463"/>
<polygon fill="none" stroke="black" points="388.609,-33.5828 378.128,-35.1322 387.288,-40.457 388.609,-33.5828"/>
</g>
<!-- \\com\\xcitestudios\\Parallelisation\\Interfaces\\EventOutputInterface -->
<g id="node21" class="node"><title>\\com\\xcitestudios\\Parallelisation\\Interfaces\\EventOutputInterface</title>
<polygon fill="none" stroke="black" points="803,-228 651,-228 651,-192 803,-192 803,-228"/>
<text text-anchor="middle" x="727" y="-207.2" font-family="Courier,monospace" font-size="11.00">EventOutputInterface</text>
</g>
<!-- \\com\\xcitestudios\\Parallelisation\\Interfaces\\EventOutputInterface&#45;&gt;\\com\\xcitestudios\\Generic\\Data\\Manipulation\\Interfaces\\SerializationInterface -->
<g id="edge22" class="edge"><title>\\com\\xcitestudios\\Parallelisation\\Interfaces\\EventOutputInterface&#45;&gt;\\com\\xcitestudios\\Generic\\Data\\Manipulation\\Interfaces\\SerializationInterface</title>
<path fill="none" stroke="black" d="M665.033,-191.986C656.562,-189.157 648.019,-186.127 640,-183 526.393,-138.698 397.873,-74.5065 332.388,-40.7342"/>
<polygon fill="none" stroke="black" points="333.683,-37.4637 323.193,-35.9781 330.467,-43.6812 333.683,-37.4637"/>
</g>
<!-- \\com\\xcitestudios\\Parallelisation\\Event&#45;&gt;\\com\\xcitestudios\\Parallelisation\\Interfaces\\EventInterface -->
<g id="edge13" class="edge"><title>\\com\\xcitestudios\\Parallelisation\\Event&#45;&gt;\\com\\xcitestudios\\Parallelisation\\Interfaces\\EventInterface</title>
<path fill="none" stroke="black" stroke-dasharray="1,5" d="M1193.94,-102C1105.99,-102 898.82,-102 792.87,-102"/>
<polygon fill="none" stroke="black" points="792.631,-98.5001 782.631,-102 792.631,-105.5 792.631,-98.5001"/>
</g>
<!-- \\JsonSerializable -->
<g id="node25" class="node"><title>\\JsonSerializable</title>
<ellipse fill="none" stroke="black" cx="961" cy="-18" rx="70.3881" ry="18"/>
<text text-anchor="middle" x="961" y="-14.3" font-family="Times,serif" font-size="14.00" fill="gray">\JsonSerializable</text>
</g>
<!-- \\com\\xcitestudios\\Parallelisation\\Event&#45;&gt;\\JsonSerializable -->
<g id="edge14" class="edge"><title>\\com\\xcitestudios\\Parallelisation\\Event&#45;&gt;\\JsonSerializable</title>
<path fill="none" stroke="black" stroke-dasharray="1,5" d="M1193.83,-89.3334C1146.54,-74.78 1068.73,-50.8412 1016.46,-34.7561"/>
<polygon fill="none" stroke="black" points="1017.27,-31.3443 1006.68,-31.7486 1015.21,-38.0347 1017.27,-31.3443"/>
</g>
<!-- \\com\\xcitestudios\\Parallelisation\\EventInput&#45;&gt;\\com\\xcitestudios\\Parallelisation\\Interfaces\\EventInputInterface -->
<g id="edge15" class="edge"><title>\\com\\xcitestudios\\Parallelisation\\EventInput&#45;&gt;\\com\\xcitestudios\\Parallelisation\\Interfaces\\EventInputInterface</title>
<path fill="none" stroke="black" stroke-dasharray="1,5" d="M1193.94,-156C1110.5,-156 919.749,-156 809.934,-156"/>
<polygon fill="none" stroke="black" points="809.891,-152.5 799.891,-156 809.891,-159.5 809.891,-152.5"/>
</g>
<!-- \\com\\xcitestudios\\Parallelisation\\EventInput&#45;&gt;\\JsonSerializable -->
<g id="edge16" class="edge"><title>\\com\\xcitestudios\\Parallelisation\\EventInput&#45;&gt;\\JsonSerializable</title>
<path fill="none" stroke="black" stroke-dasharray="1,5" d="M1193.96,-153.965C1167.82,-151.115 1134.09,-144.446 1108,-129 1075.19,-109.573 1081.98,-87.5616 1052,-64 1038.98,-53.7715 1023.34,-44.8349 1008.77,-37.6271"/>
<polygon fill="none" stroke="black" points="1009.92,-34.2986 999.392,-33.144 1006.91,-40.6143 1009.92,-34.2986"/>
</g>
<!-- \\com\\xcitestudios\\Parallelisation\\EventOutput&#45;&gt;\\com\\xcitestudios\\Parallelisation\\Interfaces\\EventOutputInterface -->
<g id="edge17" class="edge"><title>\\com\\xcitestudios\\Parallelisation\\EventOutput&#45;&gt;\\com\\xcitestudios\\Parallelisation\\Interfaces\\EventOutputInterface</title>
<path fill="none" stroke="black" stroke-dasharray="1,5" d="M1190.45,-210C1106.18,-210 922.15,-210 813.361,-210"/>
<polygon fill="none" stroke="black" points="813.074,-206.5 803.074,-210 813.074,-213.5 813.074,-206.5"/>
</g>
<!-- \\com\\xcitestudios\\Parallelisation\\EventOutput&#45;&gt;\\JsonSerializable -->
<g id="edge18" class="edge"><title>\\com\\xcitestudios\\Parallelisation\\EventOutput&#45;&gt;\\JsonSerializable</title>
<path fill="none" stroke="black" stroke-dasharray="1,5" d="M1190.28,-210.094C1163.86,-207.982 1131.14,-201.342 1108,-183 1062.19,-146.692 1092.65,-106.001 1052,-64 1041.09,-52.7258 1026.82,-43.7155 1012.87,-36.7631"/>
<polygon fill="none" stroke="black" points="1014.33,-33.5803 1003.79,-32.4884 1011.35,-39.9138 1014.33,-33.5803"/>
</g>
</g>
</svg>
